solid MYSOLID created by IVCON, original data in robot1.stlb
  facet normal 0.000000 1.000000 -0.000000
    outer loop
      vertex 0.417247 -0.487179 0.476334
      vertex 0.417247 -0.487179 -0.476334
      vertex 0.412247 -0.487179 -0.476334
    endloop
  endfacet
  facet normal 0.000000 1.000000 -0.000000
    outer loop
      vertex 0.417247 -0.487179 0.476334
      vertex 0.412247 -0.487179 -0.476334
      vertex 0.412247 -0.487179 0.476334
    endloop
  endfacet
  facet normal 0.000000 -1.000000 0.000000
    outer loop
      vertex 0.417247 -1.498285 -0.476334
      vertex 0.417247 -1.498285 0.476334
      vertex 0.412247 -1.498285 0.476334
    endloop
  endfacet
  facet normal 0.000000 -1.000000 0.000000
    outer loop
      vertex 0.417247 -1.498285 -0.476334
      vertex 0.412247 -1.498285 0.476334
      vertex 0.412247 -1.498285 -0.476334
    endloop
  endfacet
  facet normal 0.000000 0.000000 1.000000
    outer loop
      vertex 0.417247 -1.498285 0.476334
      vertex 0.417247 -0.487179 0.476334
      vertex 0.412247 -0.487179 0.476334
    endloop
  endfacet
  facet normal 0.000000 0.000000 1.000000
    outer loop
      vertex 0.417247 -1.498285 0.476334
      vertex 0.412247 -0.487179 0.476334
      vertex 0.412247 -1.498285 0.476334
    endloop
  endfacet
  facet normal 0.000000 0.000000 -1.000000
    outer loop
      vertex 0.417247 -0.487179 -0.476334
      vertex 0.417247 -1.498285 -0.476334
      vertex 0.412247 -1.498285 -0.476334
    endloop
  endfacet
  facet normal 0.000000 0.000000 -1.000000
    outer loop
      vertex 0.417247 -0.487179 -0.476334
      vertex 0.412247 -1.498285 -0.476334
      vertex 0.412247 -0.487179 -0.476334
    endloop
  endfacet
  facet normal 1.000000 -0.000000 -0.000000
    outer loop
      vertex 0.417247 -0.487179 0.476334
      vertex 0.417247 -1.498285 0.476334
      vertex 0.417247 -1.498285 -0.476334
    endloop
  endfacet
  facet normal 1.000000 0.000000 -0.000000
    outer loop
      vertex 0.417247 -0.487179 0.476334
      vertex 0.417247 -1.498285 -0.476334
      vertex 0.417247 -0.487179 -0.476334
    endloop
  endfacet
  facet normal -1.000000 -0.000000 0.000000
    outer loop
      vertex 0.412247 -0.487179 -0.476334
      vertex 0.412247 -1.498285 -0.476334
      vertex 0.412247 -1.498285 0.476334
    endloop
  endfacet
  facet normal -1.000000 0.000000 0.000000
    outer loop
      vertex 0.412247 -0.487179 -0.476334
      vertex 0.412247 -1.498285 0.476334
      vertex 0.412247 -0.487179 0.476334
    endloop
  endfacet
  facet normal 0.000000 -0.000000 1.000000
    outer loop
      vertex -0.208866 -0.043422 0.412606
      vertex -0.209921 0.341024 0.412606
      vertex -1.191064 -0.460449 0.412606
    endloop
  endfacet
  facet normal -0.000000 0.000000 -1.000000
    outer loop
      vertex -1.191064 -0.460449 -0.412606
      vertex -0.209921 0.341024 -0.412606
      vertex -0.208867 -0.043422 -0.412606
    endloop
  endfacet
  facet normal 0.000000 -0.000000 1.000000
    outer loop
      vertex 0.410525 -1.547070 0.412606
      vertex 0.410525 0.004725 0.412606
      vertex -0.208866 -0.043422 0.412606
    endloop
  endfacet
  facet normal 0.000000 -0.000000 1.000000
    outer loop
      vertex 0.410525 -1.547070 0.412606
      vertex -0.208866 -0.043422 0.412606
      vertex -0.208866 -1.547070 0.412606
    endloop
  endfacet
  facet normal -0.000000 0.000000 -1.000000
    outer loop
      vertex -0.208867 -0.043422 -0.412606
      vertex 0.410525 0.004725 -0.412606
      vertex 0.410525 -1.547070 -0.412607
    endloop
  endfacet
  facet normal -0.000000 0.000000 -1.000000
    outer loop
      vertex -0.208867 -0.043422 -0.412606
      vertex 0.410525 -1.547070 -0.412607
      vertex -0.208866 -1.547070 -0.412606
    endloop
  endfacet
  facet normal 0.000000 0.000000 1.000000
    outer loop
      vertex -0.005210 0.405023 0.412606
      vertex -0.208866 -0.043422 0.412606
      vertex 0.150200 0.374515 0.412606
    endloop
  endfacet
  facet normal 0.000000 0.000000 -1.000000
    outer loop
      vertex 0.150200 0.374515 -0.412606
      vertex -0.208867 -0.043422 -0.412606
      vertex -0.005210 0.405023 -0.412606
    endloop
  endfacet
  facet normal 0.000000 -0.000000 1.000000
    outer loop
      vertex 0.150200 0.374515 0.412606
      vertex -0.208866 -0.043422 0.412606
      vertex 0.281950 0.287637 0.412606
    endloop
  endfacet
  facet normal -0.000000 0.000000 -1.000000
    outer loop
      vertex 0.281950 0.287637 -0.412606
      vertex -0.208867 -0.043422 -0.412606
      vertex 0.150200 0.374515 -0.412606
    endloop
  endfacet
  facet normal 0.000000 -0.000000 1.000000
    outer loop
      vertex 0.281950 0.287637 0.412606
      vertex -0.208866 -0.043422 0.412606
      vertex 0.369983 0.157615 0.412606
    endloop
  endfacet
  facet normal -0.000000 0.000000 -1.000000
    outer loop
      vertex 0.369983 0.157615 -0.412606
      vertex -0.208867 -0.043422 -0.412606
      vertex 0.281950 0.287637 -0.412606
    endloop
  endfacet
  facet normal 0.000000 0.000000 1.000000
    outer loop
      vertex -0.208866 -0.043422 0.412606
      vertex 0.410525 0.004725 0.412606
      vertex 0.369983 0.157615 0.412606
    endloop
  endfacet
  facet normal -0.000000 -0.000000 -1.000000
    outer loop
      vertex 0.369983 0.157615 -0.412606
      vertex 0.410525 0.004725 -0.412606
      vertex -0.208867 -0.043422 -0.412606
    endloop
  endfacet
  facet normal -0.966594 -0.256313 -0.000000
    outer loop
      vertex 0.369983 0.157615 0.412606
      vertex 0.410525 0.004725 0.412606
      vertex 0.410525 0.004725 0.442606
    endloop
  endfacet
  facet normal -0.966594 -0.256313 0.000000
    outer loop
      vertex 0.369983 0.157615 0.412606
      vertex 0.410525 0.004725 0.442606
      vertex 0.369983 0.157615 0.442606
    endloop
  endfacet
  facet normal -0.966594 -0.256313 -0.000000
    outer loop
      vertex 0.410525 0.004725 -0.442606
      vertex 0.410525 0.004725 -0.412606
      vertex 0.369983 0.157615 -0.412606
    endloop
  endfacet
  facet normal -0.966594 -0.256313 0.000000
    outer loop
      vertex 0.410525 0.004725 -0.442606
      vertex 0.369983 0.157615 -0.412606
      vertex 0.369983 0.157615 -0.442606
    endloop
  endfacet
  facet normal -0.828056 -0.560645 0.000000
    outer loop
      vertex 0.281950 0.287637 0.412606
      vertex 0.369983 0.157615 0.412606
      vertex 0.369983 0.157615 0.442606
    endloop
  endfacet
  facet normal -0.828057 -0.560645 0.000001
    outer loop
      vertex 0.281950 0.287637 0.412606
      vertex 0.369983 0.157615 0.442606
      vertex 0.281950 0.287637 0.442606
    endloop
  endfacet
  facet normal -0.828056 -0.560645 0.000000
    outer loop
      vertex 0.369983 0.157615 -0.442606
      vertex 0.369983 0.157615 -0.412606
      vertex 0.281950 0.287637 -0.412606
    endloop
  endfacet
  facet normal -0.828056 -0.560645 0.000000
    outer loop
      vertex 0.369983 0.157615 -0.442606
      vertex 0.281950 0.287637 -0.412606
      vertex 0.281950 0.287637 -0.442606
    endloop
  endfacet
  facet normal -0.550502 -0.834834 0.000001
    outer loop
      vertex 0.150200 0.374515 0.412606
      vertex 0.281950 0.287637 0.412606
      vertex 0.281950 0.287637 0.442606
    endloop
  endfacet
  facet normal -0.550502 -0.834834 0.000000
    outer loop
      vertex 0.150200 0.374515 0.412606
      vertex 0.281950 0.287637 0.442606
      vertex 0.150200 0.374515 0.442606
    endloop
  endfacet
  facet normal -0.550502 -0.834834 0.000000
    outer loop
      vertex 0.281950 0.287637 -0.442606
      vertex 0.281950 0.287637 -0.412606
      vertex 0.150200 0.374515 -0.412606
    endloop
  endfacet
  facet normal -0.550502 -0.834834 0.000000
    outer loop
      vertex 0.281950 0.287637 -0.442606
      vertex 0.150200 0.374515 -0.412606
      vertex 0.150200 0.374515 -0.442606
    endloop
  endfacet
  facet normal -0.192629 -0.981272 0.000000
    outer loop
      vertex -0.005210 0.405023 0.412606
      vertex 0.150200 0.374515 0.412606
      vertex 0.150200 0.374515 0.442606
    endloop
  endfacet
  facet normal -0.192629 -0.981272 0.000000
    outer loop
      vertex -0.005210 0.405023 0.412606
      vertex 0.150200 0.374515 0.442606
      vertex -0.005210 0.405023 0.442606
    endloop
  endfacet
  facet normal -0.192629 -0.981272 0.000000
    outer loop
      vertex 0.150200 0.374515 -0.442606
      vertex 0.150200 0.374515 -0.412606
      vertex -0.005210 0.405023 -0.412606
    endloop
  endfacet
  facet normal -0.192629 -0.981272 0.000000
    outer loop
      vertex 0.150200 0.374515 -0.442606
      vertex -0.005210 0.405023 -0.412606
      vertex -0.005210 0.405023 -0.442606
    endloop
  endfacet
  facet normal 0.000000 1.000000 0.000000
    outer loop
      vertex -0.208866 -1.547070 0.412606
      vertex -1.208319 -1.547070 0.412606
      vertex -1.208319 -1.547070 0.442606
    endloop
  endfacet
  facet normal 0.000000 1.000000 0.000000
    outer loop
      vertex -0.208866 -1.547070 0.412606
      vertex -1.208319 -1.547070 0.442606
      vertex -0.208866 -1.547070 0.442606
    endloop
  endfacet
  facet normal 0.000000 1.000000 0.000000
    outer loop
      vertex -1.208319 -1.547070 -0.442606
      vertex -1.208319 -1.547070 -0.412606
      vertex -0.208866 -1.547070 -0.412606
    endloop
  endfacet
  facet normal 0.000000 1.000000 0.000000
    outer loop
      vertex -1.208319 -1.547070 -0.442606
      vertex -0.208866 -1.547070 -0.412606
      vertex -0.208866 -1.547070 -0.442606
    endloop
  endfacet
  facet normal 0.000000 1.000000 0.000000
    outer loop
      vertex 0.410525 -1.547070 0.412606
      vertex -0.208866 -1.547070 0.412606
      vertex -0.208866 -1.547070 0.442606
    endloop
  endfacet
  facet normal 0.000000 1.000000 0.000000
    outer loop
      vertex 0.410525 -1.547070 0.412606
      vertex -0.208866 -1.547070 0.442606
      vertex 0.410525 -1.547070 0.442606
    endloop
  endfacet
  facet normal 0.000000 1.000000 0.000000
    outer loop
      vertex -0.208866 -1.547070 -0.442606
      vertex -0.208866 -1.547070 -0.412606
      vertex 0.410525 -1.547070 -0.412607
    endloop
  endfacet
  facet normal 0.000000 1.000000 0.000000
    outer loop
      vertex -0.208866 -1.547070 -0.442606
      vertex 0.410525 -1.547070 -0.412607
      vertex 0.410525 -1.547070 -0.442606
    endloop
  endfacet
  facet normal 0.999874 -0.015878 0.000000
    outer loop
      vertex -1.208319 -1.547070 0.412606
      vertex -1.191064 -0.460449 0.412606
      vertex -1.191064 -0.460449 0.442606
    endloop
  endfacet
  facet normal 0.999874 -0.015878 0.000000
    outer loop
      vertex -1.208319 -1.547070 0.412606
      vertex -1.191064 -0.460449 0.442606
      vertex -1.208319 -1.547070 0.442606
    endloop
  endfacet
  facet normal 0.999874 -0.015878 0.000000
    outer loop
      vertex -1.191064 -0.460449 -0.442606
      vertex -1.191064 -0.460449 -0.412606
      vertex -1.208319 -1.547070 -0.412606
    endloop
  endfacet
  facet normal 0.999874 -0.015878 0.000000
    outer loop
      vertex -1.191064 -0.460449 -0.442606
      vertex -1.208319 -1.547070 -0.412606
      vertex -1.208319 -1.547070 -0.442606
    endloop
  endfacet
  facet normal -1.000000 0.000000 0.000000
    outer loop
      vertex 0.410525 0.004725 0.412606
      vertex 0.410525 -1.547070 0.412606
      vertex 0.410525 -1.547070 0.442606
    endloop
  endfacet
  facet normal -1.000000 0.000000 0.000000
    outer loop
      vertex 0.410525 0.004725 0.412606
      vertex 0.410525 -1.547070 0.442606
      vertex 0.410525 0.004725 0.442606
    endloop
  endfacet
  facet normal -1.000000 0.000000 0.000000
    outer loop
      vertex 0.410525 -1.547070 -0.442606
      vertex 0.410525 -1.547070 -0.412607
      vertex 0.410525 0.004725 -0.412606
    endloop
  endfacet
  facet normal -1.000000 0.000000 0.000000
    outer loop
      vertex 0.410525 -1.547070 -0.442606
      vertex 0.410525 0.004725 -0.412606
      vertex 0.410525 0.004725 -0.442606
    endloop
  endfacet
  facet normal 0.632632 -0.774452 0.000000
    outer loop
      vertex -1.191064 -0.460449 0.412606
      vertex -0.209921 0.341024 0.412606
      vertex -0.209921 0.341024 0.442606
    endloop
  endfacet
  facet normal 0.632632 -0.774452 0.000000
    outer loop
      vertex -1.191064 -0.460449 0.412606
      vertex -0.209921 0.341024 0.442606
      vertex -1.191064 -0.460449 0.442606
    endloop
  endfacet
  facet normal 0.632633 -0.774452 0.000000
    outer loop
      vertex -0.209921 0.341024 -0.442606
      vertex -0.209921 0.341024 -0.412606
      vertex -1.191064 -0.460449 -0.412606
    endloop
  endfacet
  facet normal 0.632633 -0.774452 0.000000
    outer loop
      vertex -0.209921 0.341024 -0.442606
      vertex -1.191064 -0.460449 -0.412606
      vertex -1.191064 -0.460449 -0.442606
    endloop
  endfacet
  facet normal -0.000000 0.000000 -1.000000
    outer loop
      vertex -0.209921 0.341024 0.442606
      vertex -0.208866 -0.043422 0.442606
      vertex -1.191064 -0.460449 0.442606
    endloop
  endfacet
  facet normal 0.000000 -0.000000 1.000000
    outer loop
      vertex -1.191064 -0.460449 -0.442606
      vertex -0.208867 -0.043422 -0.442606
      vertex -0.209921 0.341024 -0.442606
    endloop
  endfacet
  facet normal -0.000000 0.000000 -1.000000
    outer loop
      vertex -0.208866 -0.043422 0.442606
      vertex 0.410525 0.004725 0.442606
      vertex 0.410525 -1.547070 0.442606
    endloop
  endfacet
  facet normal -0.000000 0.000000 -1.000000
    outer loop
      vertex -0.208866 -0.043422 0.442606
      vertex 0.410525 -1.547070 0.442606
      vertex -0.208866 -1.547070 0.442606
    endloop
  endfacet
  facet normal 0.000000 -0.000000 1.000000
    outer loop
      vertex 0.410525 -1.547070 -0.442606
      vertex 0.410525 0.004725 -0.442606
      vertex -0.208867 -0.043422 -0.442606
    endloop
  endfacet
  facet normal 0.000000 -0.000000 1.000000
    outer loop
      vertex 0.410525 -1.547070 -0.442606
      vertex -0.208867 -0.043422 -0.442606
      vertex -0.208866 -1.547070 -0.442606
    endloop
  endfacet
  facet normal 0.000000 0.000000 -1.000000
    outer loop
      vertex 0.150200 0.374515 0.442606
      vertex -0.208866 -0.043422 0.442606
      vertex -0.005210 0.405023 0.442606
    endloop
  endfacet
  facet normal 0.000000 0.000000 1.000000
    outer loop
      vertex -0.005210 0.405023 -0.442606
      vertex -0.208867 -0.043422 -0.442606
      vertex 0.150200 0.374515 -0.442606
    endloop
  endfacet
  facet normal -0.000000 0.000000 -1.000000
    outer loop
      vertex 0.281950 0.287637 0.442606
      vertex -0.208866 -0.043422 0.442606
      vertex 0.150200 0.374515 0.442606
    endloop
  endfacet
  facet normal 0.000000 -0.000000 1.000000
    outer loop
      vertex 0.150200 0.374515 -0.442606
      vertex -0.208867 -0.043422 -0.442606
      vertex 0.281950 0.287637 -0.442606
    endloop
  endfacet
  facet normal -0.000000 0.000000 -1.000000
    outer loop
      vertex 0.369983 0.157615 0.442606
      vertex -0.208866 -0.043422 0.442606
      vertex 0.281950 0.287637 0.442606
    endloop
  endfacet
  facet normal 0.000000 -0.000000 1.000000
    outer loop
      vertex 0.281950 0.287637 -0.442606
      vertex -0.208867 -0.043422 -0.442606
      vertex 0.369983 0.157615 -0.442606
    endloop
  endfacet
  facet normal -0.000000 -0.000000 -1.000000
    outer loop
      vertex 0.410525 0.004725 0.442606
      vertex -0.208866 -0.043422 0.442606
      vertex 0.369983 0.157615 0.442606
    endloop
  endfacet
  facet normal 0.000000 0.000000 1.000000
    outer loop
      vertex 0.369983 0.157615 -0.442606
      vertex -0.208867 -0.043422 -0.442606
      vertex 0.410525 0.004725 -0.442606
    endloop
  endfacet
  facet normal 0.000000 0.161440 0.986883
    outer loop
      vertex 0.369983 0.157615 0.719363
      vertex -0.670322 -0.050705 0.753441
      vertex 0.410525 0.004725 0.744374
    endloop
  endfacet
  facet normal -0.000000 0.161441 -0.986882
    outer loop
      vertex 0.410525 0.004725 -0.744374
      vertex -0.670322 -0.050705 -0.753441
      vertex 0.369983 0.157615 -0.719363
    endloop
  endfacet
  facet normal -0.000000 0.161441 0.986882
    outer loop
      vertex 0.281950 0.287637 0.698093
      vertex -0.670322 -0.050705 0.753441
      vertex 0.369983 0.157615 0.719363
    endloop
  endfacet
  facet normal -0.000000 0.161441 -0.986882
    outer loop
      vertex 0.369983 0.157615 -0.719363
      vertex -0.670322 -0.050705 -0.753441
      vertex 0.281950 0.287637 -0.698093
    endloop
  endfacet
  facet normal 0.000000 0.161440 0.986882
    outer loop
      vertex -0.670322 -0.050705 0.753441
      vertex 0.281950 0.287637 0.698093
      vertex 0.150200 0.374515 0.683881
    endloop
  endfacet
  facet normal -0.000000 0.161440 -0.986882
    outer loop
      vertex 0.150200 0.374515 -0.683881
      vertex 0.281950 0.287637 -0.698093
      vertex -0.670322 -0.050705 -0.753441
    endloop
  endfacet
  facet normal 0.000000 0.161440 0.986883
    outer loop
      vertex -0.005210 0.405023 0.678891
      vertex -0.670322 -0.050705 0.753441
      vertex 0.150200 0.374515 0.683881
    endloop
  endfacet
  facet normal -0.000000 0.161441 -0.986882
    outer loop
      vertex 0.150200 0.374515 -0.683881
      vertex -0.670322 -0.050705 -0.753441
      vertex -0.005210 0.405023 -0.678891
    endloop
  endfacet
  facet normal -0.000001 0.161442 0.986882
    outer loop
      vertex -0.162092 0.361766 0.685967
      vertex -0.670322 -0.050705 0.753441
      vertex -0.005210 0.405023 0.678891
    endloop
  endfacet
  facet normal 0.000000 0.161440 -0.986883
    outer loop
      vertex -0.005210 0.405023 -0.678891
      vertex -0.670322 -0.050705 -0.753441
      vertex -0.162092 0.361766 -0.685967
    endloop
  endfacet
  facet normal -0.000007 0.161449 0.986881
    outer loop
      vertex -0.281694 0.294216 0.697017
      vertex -0.670322 -0.050705 0.753441
      vertex -0.162092 0.361766 0.685967
    endloop
  endfacet
  facet normal -0.000006 0.161448 -0.986881
    outer loop
      vertex -0.162092 0.361766 -0.685967
      vertex -0.670322 -0.050705 -0.753441
      vertex -0.281694 0.294216 -0.697017
    endloop
  endfacet
  facet normal -0.000000 -0.103089 0.994672
    outer loop
      vertex 0.410525 -1.547070 0.677013
      vertex 0.410525 -0.698384 0.764972
      vertex -1.186770 -0.698384 0.764972
    endloop
  endfacet
  facet normal -0.003850 -0.110255 0.993896
    outer loop
      vertex 0.410525 -1.547070 0.677013
      vertex -1.186770 -0.698384 0.764972
      vertex -1.150601 -1.505356 0.675593
    endloop
  endfacet
  facet normal -0.000000 -0.103089 -0.994672
    outer loop
      vertex -1.186770 -0.698383 -0.764972
      vertex 0.410525 -0.698383 -0.764972
      vertex 0.410525 -1.547070 -0.677014
    endloop
  endfacet
  facet normal -0.003851 -0.110255 -0.993896
    outer loop
      vertex -1.186770 -0.698383 -0.764972
      vertex 0.410525 -1.547070 -0.677014
      vertex -1.150601 -1.505356 -0.675593
    endloop
  endfacet
  facet normal 0.000000 -0.240649 0.970612
    outer loop
      vertex 0.410525 -0.698384 0.764972
      vertex 0.410525 -0.474667 0.820440
      vertex -1.131778 -0.474667 0.820440
    endloop
  endfacet
  facet normal -0.000000 -0.240650 0.970612
    outer loop
      vertex 0.410525 -0.698384 0.764972
      vertex -1.131778 -0.474667 0.820440
      vertex -1.186770 -0.698384 0.764972
    endloop
  endfacet
  facet normal -0.000000 -0.240649 -0.970612
    outer loop
      vertex -1.131778 -0.474666 -0.820440
      vertex 0.410525 -0.474666 -0.820440
      vertex 0.410525 -0.698383 -0.764972
    endloop
  endfacet
  facet normal -0.000000 -0.240650 -0.970612
    outer loop
      vertex -1.131778 -0.474666 -0.820440
      vertex 0.410525 -0.698383 -0.764972
      vertex -1.186770 -0.698383 -0.764972
    endloop
  endfacet
  facet normal -0.659743 0.750291 0.042460
    outer loop
      vertex -0.670322 -0.050705 0.753441
      vertex -0.281694 0.294216 0.697017
      vertex -0.208866 0.373023 0.436038
    endloop
  endfacet
  facet normal -0.630230 0.768603 0.109815
    outer loop
      vertex -0.670322 -0.050705 0.753441
      vertex -0.208866 0.373023 0.436038
      vertex -0.682820 -0.015603 0.436038
    endloop
  endfacet
  facet normal -0.659743 0.750291 -0.042460
    outer loop
      vertex -0.208866 0.373023 -0.436038
      vertex -0.281694 0.294216 -0.697017
      vertex -0.670322 -0.050705 -0.753441
    endloop
  endfacet
  facet normal -0.630230 0.768603 -0.109815
    outer loop
      vertex -0.208866 0.373023 -0.436038
      vertex -0.670322 -0.050705 -0.753441
      vertex -0.682820 -0.015603 -0.436038
    endloop
  endfacet
  facet normal 0.822812 0.565810 0.053280
    outer loop
      vertex 0.281950 0.287637 0.698093
      vertex 0.369983 0.157615 0.719363
      vertex 0.384792 0.162759 0.436038
    endloop
  endfacet
  facet normal 0.826677 0.559710 0.057704
    outer loop
      vertex 0.281950 0.287637 0.698093
      vertex 0.384792 0.162759 0.436038
      vertex 0.294507 0.296107 0.436038
    endloop
  endfacet
  facet normal 0.822812 0.565810 -0.053280
    outer loop
      vertex 0.384792 0.162759 -0.436038
      vertex 0.369983 0.157615 -0.719363
      vertex 0.281950 0.287637 -0.698093
    endloop
  endfacet
  facet normal 0.826677 0.559710 -0.057704
    outer loop
      vertex 0.384792 0.162759 -0.436038
      vertex 0.281950 0.287637 -0.698093
      vertex 0.294507 0.296107 -0.436038
    endloop
  endfacet
  facet normal 0.190867 0.980374 0.049371
    outer loop
      vertex -0.005210 0.405023 0.678891
      vertex 0.150200 0.374515 0.683881
      vertex 0.159387 0.385208 0.436038
    endloop
  endfacet
  facet normal 0.192383 0.980023 0.050427
    outer loop
      vertex -0.005210 0.405023 0.678891
      vertex 0.159387 0.385208 0.436038
      vertex 0.000000 0.416496 0.436038
    endloop
  endfacet
  facet normal 0.190867 0.980374 -0.049371
    outer loop
      vertex 0.159386 0.385208 -0.436038
      vertex 0.150200 0.374515 -0.683881
      vertex -0.005210 0.405023 -0.678891
    endloop
  endfacet
  facet normal 0.192383 0.980023 -0.050427
    outer loop
      vertex 0.159386 0.385208 -0.436038
      vertex -0.005210 0.405023 -0.678891
      vertex 0.000000 0.416496 -0.436038
    endloop
  endfacet
  facet normal 0.545718 0.836279 0.053180
    outer loop
      vertex 0.150200 0.374515 0.683881
      vertex 0.281950 0.287637 0.698093
      vertex 0.294507 0.296107 0.436038
    endloop
  endfacet
  facet normal 0.549628 0.833508 0.056333
    outer loop
      vertex 0.150200 0.374515 0.683881
      vertex 0.294507 0.296107 0.436038
      vertex 0.159387 0.385208 0.436038
    endloop
  endfacet
  facet normal 0.545718 0.836279 -0.053180
    outer loop
      vertex 0.294507 0.296107 -0.436038
      vertex 0.281950 0.287637 -0.698093
      vertex 0.150200 0.374515 -0.683881
    endloop
  endfacet
  facet normal 0.549628 0.833508 -0.056333
    outer loop
      vertex 0.294507 0.296107 -0.436038
      vertex 0.150200 0.374515 -0.683881
      vertex 0.159386 0.385208 -0.436038
    endloop
  endfacet
  facet normal 0.964908 0.260828 0.030336
    outer loop
      vertex 0.369983 0.157615 0.719363
      vertex 0.410525 0.004725 0.744374
      vertex 0.420019 0.005463 0.436038
    endloop
  endfacet
  facet normal 0.974357 0.218211 0.054891
    outer loop
      vertex 0.369983 0.157615 0.719363
      vertex 0.420019 0.005463 0.436038
      vertex 0.384792 0.162759 0.436038
    endloop
  endfacet
  facet normal 0.964908 0.260829 -0.030336
    outer loop
      vertex 0.420019 0.005463 -0.436038
      vertex 0.410525 0.004725 -0.744374
      vertex 0.369983 0.157615 -0.719363
    endloop
  endfacet
  facet normal 0.974357 0.218211 -0.054891
    outer loop
      vertex 0.420019 0.005463 -0.436038
      vertex 0.369983 0.157615 -0.719363
      vertex 0.384792 0.162759 -0.436038
    endloop
  endfacet
  facet normal 0.981483 -0.019747 0.190528
    outer loop
      vertex 0.410525 -0.698384 0.764972
      vertex 0.410525 -1.547070 0.677013
      vertex 0.456958 -1.547070 0.437816
    endloop
  endfacet
  facet normal 0.990078 0.000000 0.140521
    outer loop
      vertex 0.410525 -0.698384 0.764972
      vertex 0.456958 -1.547070 0.437816
      vertex 0.456958 -0.698384 0.437817
    endloop
  endfacet
  facet normal 0.981483 -0.019747 -0.190528
    outer loop
      vertex 0.456958 -1.547070 -0.437817
      vertex 0.410525 -1.547070 -0.677014
      vertex 0.410525 -0.698383 -0.764972
    endloop
  endfacet
  facet normal 0.990078 0.000000 -0.140522
    outer loop
      vertex 0.456958 -1.547070 -0.437817
      vertex 0.410525 -0.698383 -0.764972
      vertex 0.456958 -0.698384 -0.437817
    endloop
  endfacet
  facet normal 0.989477 -0.034819 0.140436
    outer loop
      vertex 0.410525 -0.474667 0.820440
      vertex 0.410525 -0.698384 0.764972
      vertex 0.456958 -0.698384 0.437817
    endloop
  endfacet
  facet normal 0.992717 -0.000000 0.120471
    outer loop
      vertex 0.410525 -0.474667 0.820440
      vertex 0.456958 -0.698384 0.437817
      vertex 0.456958 -0.474667 0.437817
    endloop
  endfacet
  facet normal 0.989477 -0.034819 -0.140436
    outer loop
      vertex 0.456958 -0.698384 -0.437817
      vertex 0.410525 -0.698383 -0.764972
      vertex 0.410525 -0.474666 -0.820440
    endloop
  endfacet
  facet normal 0.992717 0.000000 -0.120471
    outer loop
      vertex 0.456958 -0.698384 -0.437817
      vertex 0.410525 -0.474666 -0.820440
      vertex 0.456958 -0.474666 -0.437817
    endloop
  endfacet
  facet normal -0.484972 0.871181 0.076461
    outer loop
      vertex -0.281694 0.294216 0.697017
      vertex -0.162092 0.361766 0.685967
      vertex -0.159386 0.385208 0.436038
    endloop
  endfacet
  facet normal -0.233201 0.947008 0.220891
    outer loop
      vertex -0.281694 0.294216 0.697017
      vertex -0.159386 0.385208 0.436038
      vertex -0.208866 0.373023 0.436038
    endloop
  endfacet
  facet normal -0.484972 0.871181 -0.076461
    outer loop
      vertex -0.159386 0.385208 -0.436038
      vertex -0.162092 0.361766 -0.685967
      vertex -0.281694 0.294216 -0.697017
    endloop
  endfacet
  facet normal -0.233201 0.947008 -0.220891
    outer loop
      vertex -0.159386 0.385208 -0.436038
      vertex -0.281694 0.294216 -0.697017
      vertex -0.208866 0.373023 -0.436038
    endloop
  endfacet
  facet normal -0.263928 0.963718 0.039867
    outer loop
      vertex -0.162092 0.361766 0.685967
      vertex -0.005210 0.405023 0.678891
      vertex 0.000000 0.416496 0.436038
    endloop
  endfacet
  facet normal -0.191853 0.977326 0.089591
    outer loop
      vertex -0.162092 0.361766 0.685967
      vertex 0.000000 0.416496 0.436038
      vertex -0.159386 0.385208 0.436038
    endloop
  endfacet
  facet normal -0.263928 0.963718 -0.039866
    outer loop
      vertex 0.000000 0.416496 -0.436038
      vertex -0.005210 0.405023 -0.678891
      vertex -0.162092 0.361766 -0.685967
    endloop
  endfacet
  facet normal -0.191853 0.977326 -0.089591
    outer loop
      vertex 0.000000 0.416496 -0.436038
      vertex -0.162092 0.361766 -0.685967
      vertex -0.159386 0.385208 -0.436038
    endloop
  endfacet
  facet normal -0.987646 -0.060287 0.144641
    outer loop
      vertex -1.150601 -1.505356 0.675593
      vertex -1.186770 -0.698384 0.764972
      vertex -1.234943 -0.698384 0.436038
    endloop
  endfacet
  facet normal -0.943246 -0.000000 0.332094
    outer loop
      vertex -1.150601 -1.505356 0.675593
      vertex -1.234943 -0.698384 0.436038
      vertex -1.234943 -1.547070 0.436038
    endloop
  endfacet
  facet normal -0.987646 -0.060287 -0.144641
    outer loop
      vertex -1.234943 -0.698383 -0.436038
      vertex -1.186770 -0.698383 -0.764972
      vertex -1.150601 -1.505356 -0.675593
    endloop
  endfacet
  facet normal -0.943246 -0.000000 -0.332094
    outer loop
      vertex -1.234943 -0.698383 -0.436038
      vertex -1.150601 -1.505356 -0.675593
      vertex -1.234943 -1.547070 -0.436038
    endloop
  endfacet
  facet normal -0.959370 0.182466 0.215208
    outer loop
      vertex -1.186770 -0.698384 0.764972
      vertex -1.131778 -0.474667 0.820440
      vertex -1.212163 -0.443934 0.436038
    endloop
  endfacet
  facet normal -0.985586 0.088236 0.144340
    outer loop
      vertex -1.186770 -0.698384 0.764972
      vertex -1.212163 -0.443934 0.436038
      vertex -1.234943 -0.698384 0.436038
    endloop
  endfacet
  facet normal -0.959371 0.182466 -0.215208
    outer loop
      vertex -1.212163 -0.443934 -0.436038
      vertex -1.131778 -0.474666 -0.820440
      vertex -1.186770 -0.698383 -0.764972
    endloop
  endfacet
  facet normal -0.985586 0.088236 -0.144340
    outer loop
      vertex -1.212163 -0.443934 -0.436038
      vertex -1.186770 -0.698383 -0.764972
      vertex -1.234943 -0.698383 -0.436038
    endloop
  endfacet
  facet normal 0.992536 0.019112 0.120449
    outer loop
      vertex 0.410525 0.004725 0.744374
      vertex 0.410525 -0.474667 0.820440
      vertex 0.456958 -0.474667 0.437817
    endloop
  endfacet
  facet normal 0.996570 0.076785 0.030871
    outer loop
      vertex 0.410525 0.004725 0.744374
      vertex 0.456958 -0.474667 0.437817
      vertex 0.420019 0.005463 0.436038
    endloop
  endfacet
  facet normal 0.992536 0.019112 -0.120449
    outer loop
      vertex 0.456958 -0.474666 -0.437817
      vertex 0.410525 -0.474666 -0.820440
      vertex 0.410525 0.004725 -0.744374
    endloop
  endfacet
  facet normal 0.996570 0.076785 -0.030871
    outer loop
      vertex 0.456958 -0.474666 -0.437817
      vertex 0.410525 0.004725 -0.744374
      vertex 0.420019 0.005463 -0.436038
    endloop
  endfacet
  facet normal -0.026436 -0.983216 0.180517
    outer loop
      vertex 0.410525 -1.547070 0.677013
      vertex -1.150601 -1.505356 0.675593
      vertex -1.234943 -1.547070 0.436038
    endloop
  endfacet
  facet normal 0.000000 -1.000000 0.000000
    outer loop
      vertex 0.410525 -1.547070 0.677013
      vertex -1.234943 -1.547070 0.436038
      vertex 0.456958 -1.547070 0.437816
    endloop
  endfacet
  facet normal -0.026436 -0.983216 -0.180517
    outer loop
      vertex -1.234943 -1.547070 -0.436038
      vertex -1.150601 -1.505356 -0.675593
      vertex 0.410525 -1.547070 -0.677014
    endloop
  endfacet
  facet normal 0.000000 -1.000000 0.000000
    outer loop
      vertex -1.234943 -1.547070 -0.436038
      vertex 0.410525 -1.547070 -0.677014
      vertex 0.456958 -1.547070 -0.437817
    endloop
  endfacet
  facet normal -0.664056 0.739846 0.107967
    outer loop
      vertex -1.131778 -0.474667 0.820440
      vertex -0.670322 -0.050705 0.753441
      vertex -0.682820 -0.015603 0.436038
    endloop
  endfacet
  facet normal -0.617556 0.763193 0.190158
    outer loop
      vertex -1.131778 -0.474667 0.820440
      vertex -0.682820 -0.015603 0.436038
      vertex -1.212163 -0.443934 0.436038
    endloop
  endfacet
  facet normal -0.664056 0.739846 -0.107967
    outer loop
      vertex -0.682820 -0.015603 -0.436038
      vertex -0.670322 -0.050705 -0.753441
      vertex -1.131778 -0.474666 -0.820440
    endloop
  endfacet
  facet normal -0.617556 0.763193 -0.190158
    outer loop
      vertex -0.682820 -0.015603 -0.436038
      vertex -1.131778 -0.474666 -0.820440
      vertex -1.212163 -0.443934 -0.436038
    endloop
  endfacet
  facet normal 0.000298 0.155775 0.987792
    outer loop
      vertex 0.410525 0.004725 0.744374
      vertex -0.670322 -0.050705 0.753441
      vertex -1.131778 -0.474667 0.820440
    endloop
  endfacet
  facet normal 0.000000 0.156711 0.987644
    outer loop
      vertex 0.410525 0.004725 0.744374
      vertex -1.131778 -0.474667 0.820440
      vertex 0.410525 -0.474667 0.820440
    endloop
  endfacet
  facet normal 0.000298 0.155776 -0.987792
    outer loop
      vertex -1.131778 -0.474666 -0.820440
      vertex -0.670322 -0.050705 -0.753441
      vertex 0.410525 0.004725 -0.744374
    endloop
  endfacet
  facet normal -0.000000 0.156711 -0.987644
    outer loop
      vertex -1.131778 -0.474666 -0.820440
      vertex 0.410525 0.004725 -0.744374
      vertex 0.410525 -0.474666 -0.820440
    endloop
  endfacet
  facet normal 0.298387 -0.954445 -0.000000
    outer loop
      vertex -0.209921 0.341024 0.412606
      vertex -0.005210 0.405023 0.412606
      vertex -0.005210 0.405023 0.442606
    endloop
  endfacet
  facet normal 0.298387 -0.954445 0.000000
    outer loop
      vertex -0.209921 0.341024 0.412606
      vertex -0.005210 0.405023 0.442606
      vertex -0.209921 0.341024 0.442606
    endloop
  endfacet
  facet normal 0.298387 -0.954445 -0.000000
    outer loop
      vertex -0.005210 0.405023 -0.442606
      vertex -0.005210 0.405023 -0.412606
      vertex -0.209921 0.341024 -0.412606
    endloop
  endfacet
  facet normal 0.298387 -0.954445 0.000000
    outer loop
      vertex -0.005210 0.405023 -0.442606
      vertex -0.209921 0.341024 -0.412606
      vertex -0.209921 0.341024 -0.442606
    endloop
  endfacet
  facet normal 0.000000 -0.000000 1.000000
    outer loop
      vertex -0.208866 -0.043422 0.412606
      vertex -0.005210 0.405023 0.412606
      vertex -0.209921 0.341024 0.412606
    endloop
  endfacet
  facet normal -0.000000 0.000000 -1.000000
    outer loop
      vertex -0.209921 0.341024 -0.412606
      vertex -0.005210 0.405023 -0.412606
      vertex -0.208867 -0.043422 -0.412606
    endloop
  endfacet
  facet normal -0.000000 0.000000 -1.000000
    outer loop
      vertex -0.209921 0.341024 0.442606
      vertex -0.005210 0.405023 0.442606
      vertex -0.208866 -0.043422 0.442606
    endloop
  endfacet
  facet normal 0.000000 -0.000000 1.000000
    outer loop
      vertex -0.208867 -0.043422 -0.442606
      vertex -0.005210 0.405023 -0.442606
      vertex -0.209921 0.341024 -0.442606
    endloop
  endfacet
  facet normal 0.000000 -0.000000 1.000000
    outer loop
      vertex -0.208866 -1.547070 0.412606
      vertex -0.208866 -0.043422 0.412606
      vertex -1.191064 -0.460449 0.412606
    endloop
  endfacet
  facet normal 0.000000 -0.000000 1.000000
    outer loop
      vertex -0.208866 -1.547070 0.412606
      vertex -1.191064 -0.460449 0.412606
      vertex -1.208319 -1.547070 0.412606
    endloop
  endfacet
  facet normal -0.000000 0.000000 -1.000000
    outer loop
      vertex -1.191064 -0.460449 -0.412606
      vertex -0.208867 -0.043422 -0.412606
      vertex -0.208866 -1.547070 -0.412606
    endloop
  endfacet
  facet normal -0.000000 0.000000 -1.000000
    outer loop
      vertex -1.191064 -0.460449 -0.412606
      vertex -0.208866 -1.547070 -0.412606
      vertex -1.208319 -1.547070 -0.412606
    endloop
  endfacet
  facet normal -0.000000 0.000000 -1.000000
    outer loop
      vertex -1.208319 -1.547070 0.442606
      vertex -1.191064 -0.460449 0.442606
      vertex -0.208866 -0.043422 0.442606
    endloop
  endfacet
  facet normal -0.000000 0.000000 -1.000000
    outer loop
      vertex -1.208319 -1.547070 0.442606
      vertex -0.208866 -0.043422 0.442606
      vertex -0.208866 -1.547070 0.442606
    endloop
  endfacet
  facet normal 0.000000 -0.000000 1.000000
    outer loop
      vertex -0.208867 -0.043422 -0.442606
      vertex -1.191064 -0.460449 -0.442606
      vertex -1.208319 -1.547070 -0.442606
    endloop
  endfacet
  facet normal 0.000000 -0.000000 1.000000
    outer loop
      vertex -0.208867 -0.043422 -0.442606
      vertex -1.208319 -1.547070 -0.442606
      vertex -0.208866 -1.547070 -0.442606
    endloop
  endfacet
endsolid MYSOLID
