solid MYSOLID created by IVCON, original data in robot5.stlb
  facet normal 0.904469 0.426539 0.000000
    outer loop
      vertex 0.419934 0.180606 -0.079729
      vertex 0.417802 0.185129 -0.079729
      vertex 0.417802 0.185129 -0.074729
    endloop
  endfacet
  facet normal 0.904469 0.426539 0.000000
    outer loop
      vertex 0.419934 0.180606 -0.079729
      vertex 0.417802 0.185129 -0.074729
      vertex 0.419934 0.180606 -0.074729
    endloop
  endfacet
  facet normal 0.904469 0.426539 0.000000
    outer loop
      vertex 0.417802 0.185129 0.074733
      vertex 0.417802 0.185129 0.079733
      vertex 0.419934 0.180606 0.079733
    endloop
  endfacet
  facet normal 0.904469 0.426539 0.000000
    outer loop
      vertex 0.417802 0.185129 0.074733
      vertex 0.419934 0.180606 0.079733
      vertex 0.419934 0.180606 0.074733
    endloop
  endfacet
  facet normal -0.904450 -0.426579 -0.000000
    outer loop
      vertex -0.020928 -0.021771 -0.079729
      vertex -0.018795 -0.026293 -0.079729
      vertex -0.018795 -0.026293 -0.074729
    endloop
  endfacet
  facet normal -0.904450 -0.426579 -0.000000
    outer loop
      vertex -0.020928 -0.021771 -0.079729
      vertex -0.018795 -0.026293 -0.074729
      vertex -0.020928 -0.021771 -0.074729
    endloop
  endfacet
  facet normal -0.904451 -0.426578 -0.000000
    outer loop
      vertex -0.018795 -0.026293 0.074733
      vertex -0.018795 -0.026293 0.079733
      vertex -0.020928 -0.021771 0.079733
    endloop
  endfacet
  facet normal -0.904451 -0.426578 -0.000000
    outer loop
      vertex -0.018795 -0.026293 0.074733
      vertex -0.020928 -0.021771 0.079733
      vertex -0.020928 -0.021771 0.074733
    endloop
  endfacet
  facet normal -0.904451 -0.426578 0.000000
    outer loop
      vertex -0.018795 -0.026293 -0.074729
      vertex -0.018795 -0.026293 0.074733
      vertex -0.020928 -0.021771 0.074733
    endloop
  endfacet
  facet normal -0.904450 -0.426579 0.000000
    outer loop
      vertex -0.018795 -0.026293 -0.074729
      vertex -0.020928 -0.021771 0.074733
      vertex -0.020928 -0.021771 -0.074729
    endloop
  endfacet
  facet normal 0.904469 0.426539 -0.000000
    outer loop
      vertex 0.417802 0.185129 -0.074729
      vertex 0.417802 0.185129 0.074733
      vertex 0.419934 0.180606 0.074733
    endloop
  endfacet
  facet normal 0.904469 0.426539 -0.000000
    outer loop
      vertex 0.417802 0.185129 -0.074729
      vertex 0.419934 0.180606 0.074733
      vertex 0.419934 0.180606 -0.074729
    endloop
  endfacet
  facet normal 0.426537 -0.904470 0.000000
    outer loop
      vertex 0.438724 0.140763 -0.074729
      vertex -0.000006 -0.066137 -0.074729
      vertex -0.000006 -0.066137 -0.079729
    endloop
  endfacet
  facet normal 0.426537 -0.904470 0.000000
    outer loop
      vertex 0.438724 0.140763 -0.074729
      vertex -0.000006 -0.066137 -0.079729
      vertex 0.438724 0.140763 -0.079729
    endloop
  endfacet
  facet normal 0.426537 -0.904470 0.000000
    outer loop
      vertex -0.000006 -0.066137 0.079733
      vertex -0.000006 -0.066137 0.074734
      vertex 0.438724 0.140763 0.074733
    endloop
  endfacet
  facet normal 0.426537 -0.904470 0.000005
    outer loop
      vertex -0.000006 -0.066137 0.079733
      vertex 0.438724 0.140763 0.074733
      vertex 0.438724 0.140763 0.079733
    endloop
  endfacet
  facet normal -0.426537 0.904470 -0.000000
    outer loop
      vertex 0.417802 0.185129 -0.079729
      vertex -0.020928 -0.021771 -0.079729
      vertex -0.020928 -0.021771 -0.074729
    endloop
  endfacet
  facet normal -0.426537 0.904470 0.000000
    outer loop
      vertex 0.417802 0.185129 -0.079729
      vertex -0.020928 -0.021771 -0.074729
      vertex 0.417802 0.185129 -0.074729
    endloop
  endfacet
  facet normal -0.426537 0.904470 -0.000000
    outer loop
      vertex -0.020928 -0.021771 0.074733
      vertex -0.020928 -0.021771 0.079733
      vertex 0.417802 0.185129 0.079733
    endloop
  endfacet
  facet normal -0.426537 0.904470 0.000000
    outer loop
      vertex -0.020928 -0.021771 0.074733
      vertex 0.417802 0.185129 0.079733
      vertex 0.417802 0.185129 0.074733
    endloop
  endfacet
  facet normal -0.000000 -0.000000 -1.000000
    outer loop
      vertex 0.419934 0.180606 -0.079729
      vertex -0.018795 -0.026293 -0.079729
      vertex -0.020928 -0.021771 -0.079729
    endloop
  endfacet
  facet normal -0.000000 -0.000000 -1.000000
    outer loop
      vertex 0.419934 0.180606 -0.079729
      vertex -0.020928 -0.021771 -0.079729
      vertex 0.417802 0.185129 -0.079729
    endloop
  endfacet
  facet normal 0.000001 -0.000003 1.000000
    outer loop
      vertex -0.020928 -0.021771 0.079733
      vertex -0.018795 -0.026293 0.079733
      vertex 0.419934 0.180606 0.079733
    endloop
  endfacet
  facet normal 0.000000 0.000000 1.000000
    outer loop
      vertex -0.020928 -0.021771 0.079733
      vertex 0.419934 0.180606 0.079733
      vertex 0.417802 0.185129 0.079733
    endloop
  endfacet
  facet normal 0.426537 -0.904470 0.000000
    outer loop
      vertex 0.419934 0.180606 -0.074729
      vertex 0.419934 0.180606 0.074733
      vertex -0.018795 -0.026293 0.074733
    endloop
  endfacet
  facet normal 0.426537 -0.904470 0.000000
    outer loop
      vertex 0.419934 0.180606 -0.074729
      vertex -0.018795 -0.026293 0.074733
      vertex -0.018795 -0.026293 -0.074729
    endloop
  endfacet
  facet normal -0.426537 0.904470 -0.000000
    outer loop
      vertex -0.020928 -0.021771 -0.074729
      vertex -0.020928 -0.021771 0.074733
      vertex 0.417802 0.185129 0.074733
    endloop
  endfacet
  facet normal -0.426537 0.904470 -0.000000
    outer loop
      vertex -0.020928 -0.021771 -0.074729
      vertex 0.417802 0.185129 0.074733
      vertex 0.417802 0.185129 -0.074729
    endloop
  endfacet
  facet normal 0.904469 0.426539 -0.000003
    outer loop
      vertex 0.419934 0.180606 0.079733
      vertex 0.438724 0.140763 0.079733
      vertex 0.438724 0.140763 0.074733
    endloop
  endfacet
  facet normal 0.904469 0.426539 0.000000
    outer loop
      vertex 0.419934 0.180606 0.079733
      vertex 0.438724 0.140763 0.074733
      vertex 0.419934 0.180606 0.074733
    endloop
  endfacet
  facet normal -0.904470 -0.426538 -0.000000
    outer loop
      vertex -0.000006 -0.066137 0.079733
      vertex -0.018795 -0.026293 0.079733
      vertex -0.018795 -0.026293 0.074733
    endloop
  endfacet
  facet normal -0.904470 -0.426538 -0.000000
    outer loop
      vertex -0.000006 -0.066137 0.079733
      vertex -0.018795 -0.026293 0.074733
      vertex -0.000006 -0.066137 0.074734
    endloop
  endfacet
  facet normal -0.000000 0.000001 1.000000
    outer loop
      vertex -0.018795 -0.026293 0.079733
      vertex -0.000006 -0.066137 0.079733
      vertex 0.438724 0.140763 0.079733
    endloop
  endfacet
  facet normal -0.000000 0.000000 1.000000
    outer loop
      vertex -0.018795 -0.026293 0.079733
      vertex 0.438724 0.140763 0.079733
      vertex 0.419934 0.180606 0.079733
    endloop
  endfacet
  facet normal 0.000000 -0.000000 -1.000000
    outer loop
      vertex 0.419934 0.180606 0.074733
      vertex 0.438724 0.140763 0.074733
      vertex -0.000006 -0.066137 0.074734
    endloop
  endfacet
  facet normal 0.000000 -0.000001 -1.000000
    outer loop
      vertex 0.419934 0.180606 0.074733
      vertex -0.000006 -0.066137 0.074734
      vertex -0.018795 -0.026293 0.074733
    endloop
  endfacet
  facet normal 0.904469 0.426539 0.000000
    outer loop
      vertex 0.438724 0.140763 -0.079729
      vertex 0.419934 0.180606 -0.079729
      vertex 0.419934 0.180606 -0.074729
    endloop
  endfacet
  facet normal 0.904469 0.426539 0.000000
    outer loop
      vertex 0.438724 0.140763 -0.079729
      vertex 0.419934 0.180606 -0.074729
      vertex 0.438724 0.140763 -0.074729
    endloop
  endfacet
  facet normal -0.904470 -0.426538 -0.000000
    outer loop
      vertex -0.018795 -0.026293 -0.079729
      vertex -0.000006 -0.066137 -0.079729
      vertex -0.000006 -0.066137 -0.074729
    endloop
  endfacet
  facet normal -0.904470 -0.426538 -0.000000
    outer loop
      vertex -0.018795 -0.026293 -0.079729
      vertex -0.000006 -0.066137 -0.074729
      vertex -0.018795 -0.026293 -0.074729
    endloop
  endfacet
  facet normal 0.000000 -0.000000 -1.000000
    outer loop
      vertex -0.000006 -0.066137 -0.079729
      vertex -0.018795 -0.026293 -0.079729
      vertex 0.419934 0.180606 -0.079729
    endloop
  endfacet
  facet normal -0.000000 -0.000000 -1.000000
    outer loop
      vertex -0.000006 -0.066137 -0.079729
      vertex 0.419934 0.180606 -0.079729
      vertex 0.438724 0.140763 -0.079729
    endloop
  endfacet
  facet normal 0.000000 0.000000 1.000000
    outer loop
      vertex 0.438724 0.140763 -0.074729
      vertex 0.419934 0.180606 -0.074729
      vertex -0.018795 -0.026293 -0.074729
    endloop
  endfacet
  facet normal -0.000000 0.000001 1.000000
    outer loop
      vertex 0.438724 0.140763 -0.074729
      vertex -0.018795 -0.026293 -0.074729
      vertex -0.000006 -0.066137 -0.074729
    endloop
  endfacet
  facet normal 0.904465 0.426548 -0.000003
    outer loop
      vertex 0.419921 0.258699 -0.079722
      vertex 0.417788 0.263221 -0.079721
      vertex 0.417789 0.263219 -0.074721
    endloop
  endfacet
  facet normal 0.904465 0.426548 -0.000003
    outer loop
      vertex 0.419921 0.258699 -0.079722
      vertex 0.417789 0.263219 -0.074721
      vertex 0.419922 0.258697 -0.074722
    endloop
  endfacet
  facet normal -0.904446 -0.426589 -0.000011
    outer loop
      vertex -0.020941 0.056321 -0.079721
      vertex -0.018808 0.051799 -0.079722
      vertex -0.018808 0.051798 -0.074722
    endloop
  endfacet
  facet normal -0.904456 -0.426567 0.000014
    outer loop
      vertex -0.020941 0.056321 -0.079721
      vertex -0.018808 0.051798 -0.074722
      vertex -0.020941 0.056320 -0.074721
    endloop
  endfacet
  facet normal 0.904463 0.426553 0.000002
    outer loop
      vertex 0.417812 0.263171 0.074742
      vertex 0.417813 0.263169 0.079742
      vertex 0.419945 0.258647 0.079740
    endloop
  endfacet
  facet normal 0.904465 0.426548 -0.000003
    outer loop
      vertex 0.417812 0.263171 0.074742
      vertex 0.419945 0.258647 0.079740
      vertex 0.419945 0.258649 0.074740
    endloop
  endfacet
  facet normal -0.904451 -0.426577 0.000000
    outer loop
      vertex -0.018785 0.051749 0.074740
      vertex -0.018784 0.051748 0.079740
      vertex -0.020917 0.056270 0.079742
    endloop
  endfacet
  facet normal -0.904450 -0.426579 0.000003
    outer loop
      vertex -0.018785 0.051749 0.074740
      vertex -0.020917 0.056270 0.079742
      vertex -0.020918 0.056271 0.074742
    endloop
  endfacet
  facet normal -0.904450 -0.426579 0.000000
    outer loop
      vertex -0.018808 0.051798 -0.074722
      vertex -0.018785 0.051749 0.074740
      vertex -0.020918 0.056271 0.074742
    endloop
  endfacet
  facet normal -0.904456 -0.426567 -0.000000
    outer loop
      vertex -0.018808 0.051798 -0.074722
      vertex -0.020918 0.056271 0.074742
      vertex -0.020941 0.056320 -0.074721
    endloop
  endfacet
  facet normal 0.904465 0.426548 0.000000
    outer loop
      vertex 0.417789 0.263219 -0.074721
      vertex 0.417812 0.263171 0.074742
      vertex 0.419945 0.258649 0.074740
    endloop
  endfacet
  facet normal 0.904465 0.426548 0.000000
    outer loop
      vertex 0.417789 0.263219 -0.074721
      vertex 0.419945 0.258649 0.074740
      vertex 0.419922 0.258697 -0.074722
    endloop
  endfacet
  facet normal 0.426537 -0.904470 -0.000363
    outer loop
      vertex -0.000019 0.011956 -0.079738
      vertex 0.438711 0.218855 -0.079738
      vertex 0.438711 0.218854 -0.074738
    endloop
  endfacet
  facet normal 0.426537 -0.904470 -0.000362
    outer loop
      vertex -0.000019 0.011956 -0.079738
      vertex 0.438711 0.218854 -0.074738
      vertex -0.000018 0.011954 -0.074738
    endloop
  endfacet
  facet normal -0.426537 0.904470 0.000362
    outer loop
      vertex 0.417788 0.263221 -0.079721
      vertex -0.020941 0.056321 -0.079721
      vertex -0.020941 0.056320 -0.074721
    endloop
  endfacet
  facet normal -0.426537 0.904470 0.000357
    outer loop
      vertex 0.417788 0.263221 -0.079721
      vertex -0.020941 0.056320 -0.074721
      vertex 0.417789 0.263219 -0.074721
    endloop
  endfacet
  facet normal 0.426537 -0.904470 -0.000362
    outer loop
      vertex 0.000006 0.011904 0.079724
      vertex 0.000005 0.011906 0.074724
      vertex 0.438734 0.218805 0.074724
    endloop
  endfacet
  facet normal 0.426537 -0.904470 -0.000358
    outer loop
      vertex 0.000006 0.011904 0.079724
      vertex 0.438734 0.218805 0.074724
      vertex 0.438735 0.218804 0.079724
    endloop
  endfacet
  facet normal -0.426537 0.904470 0.000357
    outer loop
      vertex -0.020918 0.056271 0.074742
      vertex -0.020917 0.056270 0.079742
      vertex 0.417813 0.263169 0.079742
    endloop
  endfacet
  facet normal -0.426537 0.904470 0.000368
    outer loop
      vertex -0.020918 0.056271 0.074742
      vertex 0.417813 0.263169 0.079742
      vertex 0.417812 0.263171 0.074742
    endloop
  endfacet
  facet normal -0.000153 0.000323 -1.000000
    outer loop
      vertex 0.419921 0.258699 -0.079722
      vertex -0.018808 0.051799 -0.079722
      vertex -0.020941 0.056321 -0.079721
    endloop
  endfacet
  facet normal -0.000153 0.000323 -1.000000
    outer loop
      vertex 0.419921 0.258699 -0.079722
      vertex -0.020941 0.056321 -0.079721
      vertex 0.417788 0.263221 -0.079721
    endloop
  endfacet
  facet normal 0.000153 -0.000323 1.000000
    outer loop
      vertex -0.020917 0.056270 0.079742
      vertex -0.018784 0.051748 0.079740
      vertex 0.419945 0.258647 0.079740
    endloop
  endfacet
  facet normal 0.000153 -0.000323 1.000000
    outer loop
      vertex -0.020917 0.056270 0.079742
      vertex 0.419945 0.258647 0.079740
      vertex 0.417813 0.263169 0.079742
    endloop
  endfacet
  facet normal 0.426537 -0.904470 -0.000358
    outer loop
      vertex 0.419922 0.258697 -0.074722
      vertex 0.419945 0.258649 0.074740
      vertex -0.018785 0.051749 0.074740
    endloop
  endfacet
  facet normal 0.426537 -0.904470 -0.000358
    outer loop
      vertex 0.419922 0.258697 -0.074722
      vertex -0.018785 0.051749 0.074740
      vertex -0.018808 0.051798 -0.074722
    endloop
  endfacet
  facet normal -0.426537 0.904470 0.000358
    outer loop
      vertex -0.020941 0.056320 -0.074721
      vertex -0.020918 0.056271 0.074742
      vertex 0.417812 0.263171 0.074742
    endloop
  endfacet
  facet normal -0.426537 0.904470 0.000358
    outer loop
      vertex -0.020941 0.056320 -0.074721
      vertex 0.417812 0.263171 0.074742
      vertex 0.417789 0.263219 -0.074721
    endloop
  endfacet
  facet normal 0.904470 0.426536 0.000010
    outer loop
      vertex 0.419945 0.258647 0.079740
      vertex 0.438735 0.218804 0.079724
      vertex 0.438734 0.218805 0.074724
    endloop
  endfacet
  facet normal 0.904470 0.426538 -0.000003
    outer loop
      vertex 0.419945 0.258647 0.079740
      vertex 0.438734 0.218805 0.074724
      vertex 0.419945 0.258649 0.074740
    endloop
  endfacet
  facet normal -0.904470 -0.426538 0.000000
    outer loop
      vertex 0.000006 0.011904 0.079724
      vertex -0.018784 0.051748 0.079740
      vertex -0.018785 0.051749 0.074740
    endloop
  endfacet
  facet normal -0.904470 -0.426538 0.000000
    outer loop
      vertex 0.000006 0.011904 0.079724
      vertex -0.018785 0.051749 0.074740
      vertex 0.000005 0.011906 0.074724
    endloop
  endfacet
  facet normal 0.000153 -0.000323 1.000000
    outer loop
      vertex -0.018784 0.051748 0.079740
      vertex 0.000006 0.011904 0.079724
      vertex 0.438735 0.218804 0.079724
    endloop
  endfacet
  facet normal 0.000153 -0.000324 1.000000
    outer loop
      vertex -0.018784 0.051748 0.079740
      vertex 0.438735 0.218804 0.079724
      vertex 0.419945 0.258647 0.079740
    endloop
  endfacet
  facet normal -0.000153 0.000325 -1.000000
    outer loop
      vertex 0.419945 0.258649 0.074740
      vertex 0.438734 0.218805 0.074724
      vertex 0.000005 0.011906 0.074724
    endloop
  endfacet
  facet normal -0.000153 0.000325 -1.000000
    outer loop
      vertex 0.419945 0.258649 0.074740
      vertex 0.000005 0.011906 0.074724
      vertex -0.018785 0.051749 0.074740
    endloop
  endfacet
  facet normal 0.904470 0.426537 -0.000003
    outer loop
      vertex 0.438711 0.218855 -0.079738
      vertex 0.419921 0.258699 -0.079722
      vertex 0.419922 0.258697 -0.074722
    endloop
  endfacet
  facet normal 0.904471 0.426536 0.000013
    outer loop
      vertex 0.438711 0.218855 -0.079738
      vertex 0.419922 0.258697 -0.074722
      vertex 0.438711 0.218854 -0.074738
    endloop
  endfacet
  facet normal -0.904470 -0.426536 0.000014
    outer loop
      vertex -0.018808 0.051799 -0.079722
      vertex -0.000019 0.011956 -0.079738
      vertex -0.000018 0.011954 -0.074738
    endloop
  endfacet
  facet normal -0.904469 -0.426539 -0.000011
    outer loop
      vertex -0.018808 0.051799 -0.079722
      vertex -0.000018 0.011954 -0.074738
      vertex -0.018808 0.051798 -0.074722
    endloop
  endfacet
  facet normal -0.000153 0.000324 -1.000000
    outer loop
      vertex 0.419921 0.258699 -0.079722
      vertex 0.438711 0.218855 -0.079738
      vertex -0.000019 0.011956 -0.079738
    endloop
  endfacet
  facet normal -0.000153 0.000323 -1.000000
    outer loop
      vertex 0.419921 0.258699 -0.079722
      vertex -0.000019 0.011956 -0.079738
      vertex -0.018808 0.051799 -0.079722
    endloop
  endfacet
  facet normal 0.000153 -0.000324 1.000000
    outer loop
      vertex 0.438711 0.218854 -0.074738
      vertex 0.419922 0.258697 -0.074722
      vertex -0.018808 0.051798 -0.074722
    endloop
  endfacet
  facet normal 0.000153 -0.000323 1.000000
    outer loop
      vertex 0.438711 0.218854 -0.074738
      vertex -0.018808 0.051798 -0.074722
      vertex -0.000018 0.011954 -0.074738
    endloop
  endfacet
endsolid MYSOLID
